<?xml version="1.0" standalone="no"?>
<!DOCTYPE svg PUBLIC "-//W3C//DTD SVG 1.1//EN" "http://www.w3.org/Graphics/SVG/1.1/DTD/svg11.dtd" >
<svg xmlns="http://www.w3.org/2000/svg">
<metadata></metadata>
<defs>
<font id="backtocoolmedium" horiz-adv-x="20" >
<font-face units-per-em="2048" ascent="1638" descent="-410" />
<missing-glyph horiz-adv-x="860" />
<glyph horiz-adv-x="2048" />
<glyph horiz-adv-x="2048" />
<glyph unicode="&#xd;" horiz-adv-x="681" />
<glyph unicode=" "  horiz-adv-x="860" />
<glyph unicode="&#x09;" horiz-adv-x="860" />
<glyph unicode="&#xa0;" horiz-adv-x="860" />
<glyph unicode="!" horiz-adv-x="186" d="M25 276q12 20 36.5 17.5t34.5 -25.5q10 -25 -8 -43t-47.5 6.5t-15.5 44.5zM53 754q-3 212 15 247q14 27 36.5 31t42.5 -18q18 -18 17.5 -153.5t-19.5 -229.5q-12 -55 -22 -73.5t-31 -18.5q-23 0 -29 26q-6 31 -10 189z" />
<glyph unicode="#" horiz-adv-x="661" d="M28.5 687.5q-16.5 14.5 2.5 37.5q18 25 99 25t101 24q18 23 -4 31q-16 6 -85.5 18.5t-63.5 32.5q8 25 110 35q109 12 127 45q16 33 40 30t29 -38t35 -41.5t40 24.5q25 66 51 64q23 0 22 -39q0 -18 16.5 -38.5t32 -37t25.5 -33t-3 -28t-56 -17.5q-57 -8 -55 -30 q4 -27 73 -52q76 -29 76 -61q0 -23 -15.5 -27t-78.5 -2q-70 4 -87.5 -2t-35.5 -43q-27 -49 -27 -73.5t-28 -61.5q-20 -25 -29.5 -27t-22.5 15q-23 25 -4 98q8 41 12.5 62.5t3.5 34t-7.5 15.5t-18.5 1q-27 -6 -47 -74q-18 -70 -43 -66.5t-33 74.5q-6 51 -16 65.5t-51 26.5 q-68 18 -84.5 32.5zM321 790.5q-12 -26.5 6.5 -45t45 -6.5t22.5 39q-2 12 -12 22.5t-23 12.5q-27 4 -39 -22.5z" />
<glyph unicode="$" horiz-adv-x="602" d="M20 870q2 72 51.5 120t129.5 57q78 10 88 24q12 8 21 0t37 -22.5t54 -14.5q41 0 86 -51q35 -43 40 -62.5t-15 -56.5q-35 -68 -66 10q-29 74 -69 54q-47 -25 -47 -127q0 -53 12 -76t70 -72q74 -63 122 -155t48 -172q0 -47 -13.5 -73t-58.5 -71q-45 -43 -93 -67.5 t-77 -29.5t-50.5 -20.5t-27.5 -48.5q-4 -29 -14 -39t-37 -10t-36 11.5t-8 31t-16.5 62.5t-58.5 92q-66 78 -65 137q0 63 20.5 65.5t63.5 -55.5q39 -55 47 -55t18 25q16 41 35 198q14 111 12 139.5t-22 43.5q-29 20 -47.5 20t-77.5 59q-35 37 -46.5 61.5t-9.5 67.5zM111 856 q0 -12 24.5 -33.5t51 -36t32.5 -6.5q11 16 21 92q6 51 3 64.5t-26 13.5q-25 0 -65.5 -35.5t-40.5 -58.5zM289 219q-2 -37 57 -18q41 14 78 47l61 57l-22 88q-14 57 -46 103.5t-55.5 66t-31.5 19.5t-21.5 -124t-19.5 -239z" />
<glyph unicode="%" horiz-adv-x="733" d="M25 888q-13 83 4 103q12 18 55 49q39 27 69.5 26t69.5 -32q43 -35 62.5 -92t-0.5 -96q-37 -70 -110 -91.5t-114 23.5q-23 27 -36 110zM53.5 325.5q-2.5 16.5 10 37t27.5 41t28.5 39t13.5 26.5q0 10 56.5 82t141.5 187.5t138 211.5q18 35 40.5 61.5t33 39t10.5 24.5 q0 23 45 58q43 31 58.5 32.5t25.5 -22.5q8 -20 -26.5 -65.5t-34.5 -49.5q0 -8 -76 -121t-76 -119q0 -12 -134 -190t-134 -199q0 -23 -52.5 -64.5t-72.5 -33.5t-22.5 24.5zM61 944q-27 -51 45 -72q51 -12 74 3.5t17 60.5q-6 74 -66 61q-49 -10 -70 -53zM446 432 q12 59 29.5 89t48.5 42q121 49 172 -51q16 -33 16.5 -50.5t-14.5 -55.5q-23 -51 -56.5 -73t-92.5 -22t-86 32t-17 89zM526 459q-4 -14 17 -23q41 -16 65 8q10 9 4 19q-10 16 -43 16q-37 0 -43 -20z" />
<glyph unicode="&#x26;" horiz-adv-x="768" d="M31 438l20 135l223 222l-12 114q-16 131 5 198.5t87 94.5q68 29 127.5 6.5t93.5 -88.5q51 -100 28 -161.5t-154 -161.5l-58 -45l39 -158q29 -117 50.5 -171t58.5 -101q16 -23 24 -24t27 15q25 27 47 133q16 74 26.5 91.5t36.5 17.5q29 0 35 -14.5t10 -79.5q4 -61 -5 -92 t-50 -90q-59 -88 -59 -95q0 -6 30.5 -18t59.5 -30.5t24 -37.5q-6 -33 -49 -34t-104 28q-49 25 -73.5 26t-40 -8.5t-71 -20.5t-141.5 -11q-82 0 -114.5 7t-61.5 32q-94 78 -59 321zM127 340q0 -117 51 -147.5t191 2.5q70 16 82 34.5t-19 59.5q-37 44 -37 69q0 14 -32.5 88 t-32.5 123q0 68 -25.5 78t-71.5 -37q-59 -63 -82.5 -121.5t-23.5 -148.5zM356 969q12 -70 23 -76q6 -6 45 18.5t61.5 65.5t-14.5 104q-43 61 -86 19q-43 -41 -29 -131z" />
<glyph unicode="'" horiz-adv-x="163" d="M27 881q-18 16 9 118.5t58 139.5q27 29 41 14q16 -16 3 -86t-40 -104q-12 -14 -23.5 -34t-15.5 -30t-10 -19.5t-10 -7.5t-12 9z" />
<glyph unicode="(" horiz-adv-x="464" d="M20 471q0 94 9.5 143.5t36.5 112.5q51 123 129 224.5t133 121.5q33 12 67.5 10t42.5 -18q4 -6 -16.5 -32.5t-56.5 -57.5q-98 -88 -176 -246t-78 -270q0 -98 84 -219t172 -152q72 -23 75 -57q6 -39 -24.5 -47.5t-98.5 12.5q-80 23 -152.5 108.5t-72.5 98t-37 63.5 q-25 33 -31 70t-6 135z" />
<glyph unicode=")" horiz-adv-x="399" d="M27 -66q-12 14 2 41t69 97q109 139 137.5 219t22.5 229q-4 90 -15.5 148.5t-21.5 76t-18 34t-8 32.5q0 12 -84 119.5t-76 120.5q31 49 121 -25q88 -74 135 -184q33 -76 60.5 -182.5t27.5 -157.5q0 -66 -37 -192t-72 -181q-43 -70 -112.5 -144.5t-87.5 -74.5q-23 0 -43 24 z" />
<glyph unicode="*" horiz-adv-x="655" d="M20 949.5q0 11.5 19 41.5q29 41 98 62l94 24q20 6 20.5 62.5t12.5 68.5q20 23 59 8.5t72 -57.5q31 -41 51.5 -49t88.5 -4q66 2 81 -3t19 -32q6 -41 -29 -78q-25 -27 -26.5 -40t16.5 -46q45 -86 5 -116.5t-179 -18.5q-86 6 -113.5 1t-54.5 -30q-37 -33 -65.5 -18.5 t-28.5 68.5q0 33 -15.5 48t-47 32.5t-54.5 41.5q-23 23 -23 34.5z" />
<glyph unicode="+" horiz-adv-x="509" d="M31.5 730q27.5 28 99.5 36q61 6 72.5 14t15.5 54q4 56 12 79q14 43 50 9q23 -25 34 -70q14 -59 38 -81.5t75 -22.5q63 0 61 -37q0 -37 -55 -58q-18 -6 -41 -8q-45 -4 -52 -13t-5 -52q4 -47 -16.5 -77t-49.5 -20q-20 6 -39 82q-12 55 -24 65.5t-72 14.5q-72 4 -101.5 30.5 t-2 54.5z" />
<glyph unicode="," horiz-adv-x="208" d="M22.5 239q-7.5 44 8.5 62q12 10 39.5 10t48.5 -14q23 -14 46 -62.5t23 -80.5q0 -45 -28.5 -94.5t-57.5 -49.5q-33 0 -43 28t11 60q12 20 10 32.5t-25 37.5q-25 27 -32.5 71z" />
<glyph unicode="-" horiz-adv-x="512" d="M20 549q0 14 29 37q25 20 66 24t174 0l203 -4v-84l-216 -4q-254 -6 -256 31z" />
<glyph unicode="." horiz-adv-x="174" d="M20.5 210q-6.5 36 11 68.5t56.5 32.5q33 0 52.5 -27.5t11 -61.5t-38.5 -48q-41 -18 -68 -8q-18 8 -24.5 44z" />
<glyph unicode="/" horiz-adv-x="681" d="M23.5 185.5q-13.5 25.5 15.5 58.5q29 31 29 43q0 6 12 26.5t41 67.5t55 98q27 53 51.5 93t34.5 56.5t16.5 29t6.5 22.5q0 20 78 137t90 117q8 0 19 16.5l39 58.5t67 83q61 66 79 47q18 -18 -38 -130t-95 -139q-39 -25 -39 -41q0 -10 -15 -33.5t-62.5 -102.5t-102.5 -191 q-31 -61 -84 -156l-61 -108q-37 -68 -82 -74q-41 -4 -54.5 21.5z" />
<glyph unicode="0" horiz-adv-x="600" d="M20 545q2 117 9.5 164t29.5 84q35 59 35 77q0 14 29 50t60.5 54.5t52.5 -7.5q10 -16 81 -17q135 0 222 -116q29 -41 35 -78t6 -164q0 -121 -7.5 -168t-35.5 -113q-45 -100 -99 -133q-88 -55 -206.5 -22.5t-172.5 127.5q-29 49 -35 90t-4 172zM114 446.5q5 -36.5 25 -84.5 q23 -49 42.5 -65t70.5 -31q86 -23 130 4t70.5 116t27 215t-24.5 177q-20 39 -40 47.5t-104 8.5q-115 0 -129 -21q-49 -80 -65 -258q-8 -72 -3 -108.5z" />
<glyph unicode="1" horiz-adv-x="225" d="M41 817l53 94q23 41 60 35q20 -2 26 -26q10 -39 21 -328q8 -262 0 -338t-43 -76q-20 0 -31.5 9.5t-19 44t-9.5 88t-2 155.5q0 233 -14 250q-4 6 -19 6q-72 0 -22 86z" />
<glyph unicode="2" horiz-adv-x="493" d="M25 223q16 45 204 291q47 61 81 158.5t22 132.5q-4 10 -17.5 19.5t-25.5 9.5q-33 0 -74 -43t-41 -76q0 -20 -8 -26.5t-31 -4.5q-23 4 -31 16.5t-12 44.5q-2 37 10.5 61t61.5 71q74 70 129 74.5t106 -52.5q59 -74 29.5 -207t-135.5 -262q-63 -76 -92 -123 q-20 -31 -20.5 -40t18.5 -15q29 -10 97.5 -3t128.5 -4.5t46 -54.5q-12 -33 -205.5 -44t-222.5 18t-18 59z" />
<glyph unicode="3" horiz-adv-x="569" d="M29 145q-23 35 14 68q16 12 29.5 12t38.5 -14q27 -12 51 -11t86 21q188 59 188 203q0 51 -11 69.5t-67 53.5q-106 66 -125.5 84t-3.5 45q18 29 66 57q72 39 53 90q-18 45 -76 41q-35 -2 -67 -24q-51 -37 -66 -4q-12 28 21 77q16 23 39.5 30t85.5 7q96 0 125 -32 q33 -35 38 -95.5t-18 -109.5l-29 -56l66 -59q66 -59 78 -113q10 -51 -11.5 -125.5t-61.5 -126t-136 -95.5t-170 -44q-104 0 -137 51z" />
<glyph unicode="4" horiz-adv-x="624" d="M24.5 522q-22.5 47 79.5 178q84 107 84 125q0 29 45 76q57 59 70 -8q4 -25 -31.5 -113t-68.5 -129q-31 -41 -24 -52t95 -3q61 8 77 17.5t30 52.5q18 55 41.5 55t42.5 -55q14 -37 42 -57.5t55.5 -33t37.5 -26.5q14 -23 -11.5 -45.5t-68.5 -26.5l-55 -6l-8 -174 q-4 -106 -11.5 -144t-25.5 -49q-45 -29 -60 35q-10 43 -10 160l-2 172l-137 2q-164 2 -186.5 49z" />
<glyph unicode="5" horiz-adv-x="577" d="M20 758q0 72 7.5 95.5t38.5 45.5q43 35 88 43q25 4 63.5 16.5t66 20.5t55.5 13t44 -3t20 -33q4 -31 -31.5 -60.5t-78.5 -29.5q-39 0 -96 -24q-39 -16 -49.5 -30.5t-10.5 -55.5q0 -43 7.5 -50.5t39.5 -0.5q100 25 147.5 22.5t92.5 -33.5q88 -59 121 -183t-19 -202 q-39 -61 -133 -120.5t-170 -71.5q-39 -6 -60.5 1t-51.5 32q-96 86 82 88q53 0 86.5 11t80.5 42q33 23 57.5 50.5t28.5 45.5q10 35 -5 107.5t-33 93.5q-18 18 -120 16t-120 -20q-51 -51 -113 26q-20 25 -27.5 55.5t-7.5 92.5z" />
<glyph unicode="6" horiz-adv-x="628" d="M20 510q0 123 37.5 229.5t98.5 163.5q43 41 59 44t53 -23q37 -25 36 -42.5t-38 -31.5q-70 -27 -108.5 -147.5t-36.5 -230.5t33 -110q10 0 65 76q68 98 170.5 121t169.5 -43q57 -59 47 -145t-86 -154q-92 -86 -243.5 -52t-225.5 154q-31 51 -31 191zM281 330 q-10 -49 1 -61.5t68 -10.5q57 0 108.5 46t45.5 91q-4 29 -17.5 37t-58.5 10q-121 8 -147 -112z" />
<glyph unicode="7" horiz-adv-x="559" d="M27 879q8 16 47 19t184 -5q55 -4 85 -5t66.5 -5t53 -7.5t36 -10.5t24.5 -12t11.5 -18.5t3.5 -23.5t-9.5 -31.5t-13.5 -38t-21 -47.5q-45 -96 -105 -381q-39 -190 -74 -200q-12 -4 -28 12q-31 29 6 250t92 330q23 49 5.5 66t-187.5 26q-129 4 -160.5 19.5t-15.5 62.5z" />
<glyph unicode="8" horiz-adv-x="610" d="M23 399q8 80 55 172l47 95l-37 36q-45 47 -38 117t61.5 130.5t91.5 70.5t139 8q127 -6 172 -80t-18 -170l-45 -69l41 -35q37 -31 67.5 -91.5t30.5 -103.5q0 -55 -36 -135t-79 -117q-39 -35 -67.5 -42t-126.5 -7h-142l-61 72q-43 49 -51.5 72.5t-3.5 76.5zM123 377 q2 -35 16.5 -51.5t53.5 -36.5q129 -61 231 39q31 31 39 56.5t8 84.5q0 92 -27 115q-29 23 -114.5 27.5t-112.5 -15.5q-37 -29 -67.5 -101.5t-26.5 -117.5zM157 826.5q-5 -19.5 19 -50.5q16 -23 32.5 -22.5t86.5 18.5q94 29 115 70q10 27 8.5 40t-15.5 27q-25 25 -77 35 q-35 6 -55.5 -3t-59.5 -46q-49 -49 -54 -68.5z" />
<glyph unicode="9" horiz-adv-x="559" d="M29 799q32 143 190 190q88 25 111 27t98.5 -36t79.5 -54q4 -23 16.5 -56.5t14.5 -49t-2.5 -53.5t-20.5 -93q-55 -197 -94 -400q-33 -174 -72 -176q-12 0 -26 13q-23 18 -17 90.5t45 232.5q14 66 19.5 99.5t1.5 54t-21.5 17.5t-46.5 -11q-31 -10 -59.5 -8t-89.5 22 q-92 29 -119 69t-8 122zM127 783q-14 -42 14 -62q41 -31 111 -21.5t128 51.5t65.5 66.5t-27.5 55t-110 28.5t-118 -37q-49 -39 -63 -81z" />
<glyph unicode=":" horiz-adv-x="188" d="M23.5 298q17.5 52 78.5 44q41 -4 58 -59q10 -37 6 -53.5t-27 -39.5l-37 -36l-41 41q-55 51 -37.5 103zM28.5 836q-20.5 41 18.5 84q27 31 47 30q33 0 48.5 -34.5t5 -71.5t-41.5 -41q-57 -8 -77.5 33z" />
<glyph unicode=";" horiz-adv-x="241" d="M37.5 223.5q-3.5 26.5 25.5 59.5q29 31 49.5 27.5t61.5 -44.5q29 -27 38 -51.5t9 -71.5t-11 -74.5t-44 -66.5q-61 -72 -89 -42t17 116q16 33 14 46t-32 40q-35 35 -38.5 61.5zM45 805q-53 76 10 119q37 25 49.5 23.5t45.5 -32.5q66 -59 10 -118q-29 -31 -59.5 -29 t-55.5 37z" />
<glyph unicode="&#x3c;" horiz-adv-x="907" d="M20 629q-4 35 15.5 60.5t50.5 25.5q27 0 97.5 32.5t153.5 74.5t109 55l295 116q57 23 86 23t47 -25q20 -23 4 -38t-104 -52q-504 -211 -504 -237q0 -12 62 -23q143 -25 299.5 -86t204.5 -113q29 -29 32.5 -41t-10.5 -30q-37 -43 -135 26q-123 86 -477 154 q-150 27 -185.5 40t-40.5 38z" />
<glyph unicode="=" horiz-adv-x="802" d="M20 723q0 23 27 29q37 8 281 16q305 10 317 20q14 14 47 5t48.5 -31.5t-5.5 -52.5q-14 -18 -78.5 -21.5t-289.5 -1.5q-313 4 -336 16q-10 6 -11 21zM37 463q-14 12 9.5 42t372.5 28.5t359 -29.5q14 -37 -28 -49q-55 -14 -342 -15q-340 -2 -371 23z" />
<glyph unicode="&#x3e;" horiz-adv-x="1003" d="M27.5 959.5q-17.5 25.5 1.5 50.5q18 20 44.5 22t80.5 -14q657 -217 766 -246q35 -10 47 -22.5t16 -38.5q4 -29 -8 -43.5t-60 -34.5q-45 -20 -77.5 -30.5t-82.5 -24t-104 -31.5q-90 -29 -149.5 -47.5t-108.5 -30.5t-75.5 -16t-46 -2t-26.5 10t-9 22q-6 25 56 62t107 37 q25 0 121 32.5t117 32.5q27 0 71 19.5t44 31.5q0 8 -83 37t-231.5 79t-247.5 87q-82 33 -110 33q-35 0 -52.5 25.5z" />
<glyph unicode="?" horiz-adv-x="503" d="M25 907q12 41 46.5 81t73.5 56q72 27 148 12.5t133 -67.5t57 -117q0 -37 -53 -97t-96 -70q-39 -10 -113 -59.5t-74 -65.5q0 -25 51.5 -35t112.5 2q80 16 105 -8q23 -20 10.5 -38t-66.5 -44q-59 -27 -113 -27t-89 19.5t-60.5 46t-38 47t-12.5 28.5q0 53 61.5 124t108.5 71 q23 0 86 41q74 51 59.5 96t-110.5 58q-41 6 -59.5 -0.5t-40.5 -34.5q-33 -43 -25 -76q10 -37 -21 -33q-20 2 -55 25q-39 29 -26 65zM175 211.5q9 15.5 24 7.5q10 -6 10 -16t-9.5 -15.5t-19.5 -1.5q-14 10 -5 25.5z" />
<glyph unicode="@" horiz-adv-x="978" d="M20 436q0 76 28 181.5t61 150.5q29 45 28 57q0 16 62.5 64.5t111.5 71.5q47 20 176 18t158 -23q23 -18 64 -28q55 -14 129.5 -91t95.5 -143q27 -80 24.5 -135t-30.5 -141q-80 -223 -266 -223q-47 0 -107.5 25.5t-69.5 49.5q-12 31 -36.5 24t-53 -30.5t-67.5 -32t-80 18.5 q-20 14 -26.5 40.5t-6.5 92.5q2 72 11.5 105.5t43.5 82.5q98 141 232 68q61 -33 76.5 -56.5t-3.5 -60.5q-18 -41 -17 -113.5t20 -93.5q29 -29 89 -19.5t95 46.5q51 53 66.5 97t15.5 134q0 63 -8.5 96t-28.5 64q-37 49 -51.5 49t-83.5 45q-45 27 -82 36t-119 9 q-94 2 -119.5 -5t-68.5 -48q-57 -57 -103 -139q-33 -59 -38 -97t-1 -159q4 -119 12.5 -158t39.5 -84q55 -86 130.5 -116.5t225.5 -30.5q168 0 249 31.5t99 13.5q12 -12 5 -26.5t-38 -45.5q-35 -35 -66.5 -46t-125.5 -19q-203 -20 -332 11.5t-203 121.5q-45 53 -81 164.5 t-36 195.5zM311 416q-10 -39 8.5 -57.5t45.5 3.5q27 23 67.5 103t30.5 88q-31 31 -81 -14t-71 -123z" />
<glyph unicode="A" horiz-adv-x="876" d="M22 204v10q0 26 10 59q12 40 32 88.5t40.5 91.5t34 81t13.5 56t33.5 91t33.5 87q0 16 17.5 65.5t43 124t42.5 136.5q35 139 50 185t31 58q25 14 38 14q1 -1 3 -1q12 -2 39 -35q53 -70 123 -297l160 -504q45 -141 67.5 -186t22.5 -90t-25 -54q-20 -8 -37.5 2.5t-31.5 39 t-25.5 60t-29 80t-33.5 83.5l-35 77l-113 11q-115 10 -194 10h-35t-24.5 -5t-17.5 -8.5t-13.5 -18.5t-14.5 -28.5t-17 -45t-26 -58.5q-33 -72 -32 -100q0 -37 -41 -81q-35 -37 -58 -37q-4 0 -8 1q-21 8 -23 38zM311 666q9 -12 139 -16q40 -1 69 -2q65 0 73 7q2 2 2 10 q0 20 -14 79q-20 81 -48 163q-12 33 -30.5 94.5t-29.5 89t-19 27.5q-14 0 -83 -218q-60 -190 -60 -227q0 -5 1 -7z" />
<glyph unicode="B" horiz-adv-x="776" d="M21 1078q0 221 20 239q20 20 101 21q18 0 38 -2q114 -6 180 -33q74 -33 135.5 -100.5t61.5 -117.5q0 -41 -35 -105.5t-71 -94.5q-33 -27 -23 -41.5t70 -32.5q86 -25 153.5 -86t85.5 -133q18 -64 17 -115q0 -61 -25 -104q-47 -78 -215 -156q-61 -29 -221 -33 q-21 -1 -39 -1q-125 0 -154 24q-16 14 -23 69.5t-16.5 188.5t-23.5 242q-16 150 -16 371zM135 1225q-3 -18 -3 -56q0 -49 5 -135q8 -148 19 -157q6 -7 21 -7q23 0 67 17q72 28 129 76q69 59 69 112q0 49 -57 94q-27 23 -88 42.5t-107 23.5q-10 1 -18 1q-29 0 -37 -11z M150 756q-2 -4 -2 -27q0 -49 9 -188q13 -203 21 -228q6 -12 39 -16q13 -2 35 -2q33 0 86 4q98 6 136 16.5t87 42.5q67 47 83 89q7 18 6 40q0 31 -13 72q-18 53 -62.5 92t-102.5 57.5t-108.5 29t-103.5 15.5t-65 7q-15 3 -25 3q-15 0 -20 -7z" />
<glyph unicode="C" horiz-adv-x="802" d="M26 602q-7 64 -7 124q0 76 12 144q14 90 35.5 142.5t35 71t13.5 28.5q0 14 71.5 84t97.5 80q16 6 81 6q39 0 96 -2q92 -2 134 -10t79 -33q37 -23 50 -41t13 -47q0 -47 -19.5 -56.5t-53.5 21.5q-51 50 -175 66q-41 6 -75 5q-68 0 -107 -22q-88 -49 -142 -187 q-47 -120 -47 -251q0 -19 1 -39q12 -180 80.5 -267t236.5 -132q97 -19 135 -19h5q36 2 85.5 14.5t86.5 12.5q30 -1 34 -29q1 -4 0 -8q0 -24 -20 -47q-20 -20 -54 -26.5t-143 -6.5q-100 0 -150 7.5t-104 29.5q-68 29 -132 74t-64 63q0 14 -31 54q-42 50 -58 196z" />
<glyph unicode="D" horiz-adv-x="792" d="M26 1348q8 18 22 18q4 0 9 -2q47 -18 353 -78q53 -10 130.5 -70.5t102.5 -111.5q6 -12 38 -71.5t39 -80t24.5 -69.5t22.5 -97.5t5 -109.5q0 -143 -17.5 -190.5t-148.5 -172.5q-124 -121 -232 -171q-96 -45 -202 -45q-13 0 -25 1q-66 2 -86 9.5t-24 25.5q-6 31 18 57 q19 21 19 53t-17 128q-16 102 -19 323t-3 398.5t-8 197.5q-6 17 -6 32q0 14 5 26zM141 1194q-5 -12 -5 -114q0 -107 6 -312q10 -401 22 -483q6 -45 15 -59.5t30 -14.5q102 2 255.5 111.5t186.5 205.5q20 57 20 129q1 38 -5 81q-16 122 -74 237q-2 6 -8 14q-23 45 -39.5 70.5 t-54 63.5t-98 60.5t-144.5 30.5q-37 4 -58 4q-15 0 -23 -2q-20 -4 -26 -22z" />
<glyph unicode="E" horiz-adv-x="624" d="M22 286q-2 43 -2 151q0 120 3 319l4 553l41 12q37 10 189 10h54q180 -4 197 -16q8 -6 10 -25q6 -35 -24 -45q-31 -12 -193 -22l-174 -13v-403l78 -4q76 -6 104.5 -33t-2.5 -54.5t-106 -33.5l-90 -8v-420l233 -8q147 -6 193.5 -13.5t58.5 -25.5q7 -12 7 -23q0 -16 -15 -30 q-16 -16 -46 -18q-9 -1 -18 -1q-23 0 -50 4q-38 6 -114.5 14.5t-158.5 8.5q-125 0 -154 20q-21 14 -25 104z" />
<glyph unicode="F" horiz-adv-x="737" d="M23 1239q8 51 32 64q27 16 209 32q94 9 173 9q83 0 150 -10q130 -19 130 -64q0 -27 -56.5 -35t-242.5 -10q-258 -2 -275 -19q-7 -7 -7 -61q0 -56 8 -163q14 -210 28 -234q10 -16 82 -17q63 0 92 -23.5t8 -56.5q-17 -28 -95 -28h-5h-82l-2 -232q-2 -90 -5 -141t-11 -82 t-17 -37q-5 -3 -12 -3t-16 3q-10 4 -16.5 29.5t-11.5 89t-8 139.5t-13.5 219.5t-22.5 290.5q-17 192 -17 281q0 39 3 59z" />
<glyph unicode="G" horiz-adv-x="1007" d="M23 713q-2 44 -2 79q0 51 4 79q6 47 30 110q55 135 122.5 211t182.5 127q70 33 166 33q42 0 89 -6q155 -21 223 -86q23 -23 29.5 -45.5t-0.5 -36t-21.5 -20.5t-37 0t-44.5 30q-29 27 -62.5 33t-150.5 6q-123 0 -156 -7.5t-80 -41.5q-194 -149 -194 -454 q0 -183 127 -321.5t303 -152.5q27 -3 47 -3t34 3q27 6 56 26q49 35 68 35q18 0 61 71t39 95q-6 23 -37 25h-13q-41 0 -157 -8q-24 -2 -40 -2q-24 0 -31 4q-13 6 -13 34q0 35 32 48.5t173 37.5q61 10 105 10q63 0 89 -21q22 -18 22 -54t-23 -92q-37 -88 -37 -107 q0 -27 -90.5 -99.5t-143.5 -88.5q-63 -18 -126 -18q-97 0 -194 44q-161 72 -274 242q-53 80 -62 116t-13 165z" />
<glyph unicode="H" horiz-adv-x="735" d="M26 742q-6 176 -7 295q0 224 22 245q20 20 39 21q20 0 30.5 -10.5t17.5 -43t9 -86t2 -149.5q0 -246 17 -256q10 -6 34.5 0t95 19.5t163.5 19.5l151 10l8 205q6 121 13.5 169t23.5 64q18 18 25.5 18.5t19.5 -22.5q16 -31 23 -526q1 -113 1 -199q0 -259 -9 -283 q-4 -14 -21 -14q-27 0 -42 64.5t-30 253.5l-12 153l-137 -6q-139 -6 -227 -16l-89 -13l7 -229q2 -77 2 -125.5t-2 -69.5q-4 -41 -23 -47q-9 -4 -18 -4q-18 0 -33 17q-36 39 -54 545z" />
<glyph unicode="I" horiz-adv-x="421" d="M20 154q0 17 62 47l63 32l-24 926l-43 47q-25 25 -30 39.5t5 28.5q15 18 85 18q25 0 57 -2q117 -6 141 -15t20 -42q-4 -25 -18 -34t-53 -13l-66 -8l4 -244q2 -156 6 -209t11.5 -113.5t15.5 -185.5l10 -188l68 -11q43 -4 55 -13t12 -36v-43h-190q-191 0 -191 19z" />
<glyph unicode="J" horiz-adv-x="583" d="M20 303q6 40 40 40h2q36 -1 69 -46q38 -50 83 -50h2q46 1 112 54l65 57l-4 191q-4 190 -24 426q-16 209 -33 229q-8 10 -29 15q-41 10 -41 51q0 29 15 37t85 14q87 8 132 8q22 0 34 -2q35 -6 35 -41q0 -25 -11 -37t-42 -20q-39 -12 -47 -26.5t-8 -76.5q0 -84 28 -405 q21 -248 21 -293q0 -48 -27 -98q-31 -61 -95.5 -114.5t-119.5 -63.5q-20 -4 -40 -4q-65 0 -128 40q-75 47 -75 104q0 5 1 11z" />
<glyph unicode="K" horiz-adv-x="745" d="M20 715v43q0 539 20.5 558t31.5 19q16 0 28 -165.5t20.5 -336.5t18.5 -178q2 -1 5 -1q36 0 178 172q154 188 243 348q23 37 66 53q18 7 32 7q20 0 33 -13q6 -6 6 -16q0 -21 -24 -55q-36 -52 -36.5 -62.5t-34.5 -45t-34 -47.5q0 -14 -100 -149l-102 -133l73 -80 q96 -106 188.5 -256t92.5 -201q1 -31 -25 -41q-9 -4 -19 -4q-16 0 -32 12q-20 18 -45.5 69.5t-83 152t-139.5 208.5q-49 66 -51 71t-25.5 -8t-54.5 -35.5t-53 -43.5q-37 -33 -45.5 -63.5t-14.5 -153.5q-4 -113 -11 -142.5t-28 -33.5q-7 -1 -14 -1q-31 0 -41 32 q-23 61 -23 520z" />
<glyph unicode="L" horiz-adv-x="657" d="M23 1159q9 25 24 25q16 0 37 -31q51 -68 51 -152q0 -29 19.5 -177t27.5 -361l11 -260l219 -8q143 -6 181 -12.5t42 -26.5q1 -8 1 -16q0 -34 -30 -44q-25 -8 -92 -8q-32 0 -74 2q-166 6 -235.5 15.5t-95.5 27.5q-25 18 -30 115.5t-11.5 295t-28.5 374.5q-19 153 -19 211 q0 22 3 30z" />
<glyph unicode="M" horiz-adv-x="1173" d="M25 690q8 334 14 407.5t31 100.5q35 37 47 37q35 0 135 -143.5t100 -192.5q0 -16 68.5 -133t111.5 -180q39 -53 39 -75t31 -62l33 -41l35 81q35 80 35 99q0 14 67.5 212.5t67.5 225.5q0 41 35.5 91t64.5 50q39 0 71.5 -83t47.5 -214q8 -88 38.5 -260t46.5 -286 q9 -62 9 -96q0 -28 -6 -35q-16 -15 -34 -15q-9 0 -19 4q-28 12 -33 45q-2 18 -38 219t-50 299q-18 141 -27 164q-18 45 -35 6q-6 -14 -10 -36q-8 -47 -92 -295t-115 -369q-6 -23 -51 -16.5t-57 28.5q-4 10 -43 94.5t-77 158t-67 114.5q-47 72 -47 84q0 6 -33.5 53t-33.5 66 q0 14 -32 68.5t-44 90.5q-17 50 -35 56q-2 1 -3 0q-16 0 -26 -60q-6 -51 -16 -415q-8 -324 -49 -349q-14 -9 -24 -9q-17 0 -23 26q-11 39 -11 242q0 101 3 243z" />
<glyph unicode="N" horiz-adv-x="811" d="M20 838q4 180 10.5 227t28.5 63q33 23 47 23q20 0 107.5 -88t132.5 -154q215 -309 244 -358q28 -49 42 -49q6 0 9 8q11 24 11 198q0 50 -1 111q-1 70 -1 126q0 203 11.5 220.5t31.5 17.5q5 0 12 -1q16 -4 23 -54.5t13 -236.5q12 -285 31 -393q21 -126 21 -210 q0 -99 -29 -141q-12 -18 -29 -18q-11 0 -25 8q-34 21 -79 127.5t-82 157.5q-16 23 -63.5 93.5t-94.5 143t-98 144t-90 118t-53.5 46.5t-18.5 -408l-4 -405h-41q-31 0 -37 18q-8 25 -18 190q-12 174 -12 384q0 45 1 92z" />
<glyph unicode="O" horiz-adv-x="841" d="M22 536q-1 13 -1 33q0 36 4 97q18 244 87.5 428t161.5 235q36 19 48 21q3 1 5 1q7 -1 9 -7q2 -8 23.5 -16.5t62.5 -8.5q96 0 195.5 -76t146.5 -182q43 -99 54 -273q3 -52 3 -101q0 -116 -18 -216q-18 -102 -75.5 -182t-129.5 -107q-68 -24 -169 -24h-13q-110 2 -166 26 q-41 18 -102.5 89t-61.5 102q0 14 -37 82q-23 43 -27 79zM143 471l58 -88q55 -90 85.5 -105.5t147.5 -15.5q102 0 150.5 27.5t91.5 111.5q20 41 29.5 93.5t13.5 156.5q3 65 3 110q0 37 -2 61q-5 52 -30 130q-66 201 -201 248q-60 21 -107 21q-32 -1 -58 -11 q-64 -24 -97 -114q-55 -143 -66 -201.5t-14 -212.5z" />
<glyph unicode="P" horiz-adv-x="657" d="M26 1267q18 24 103 38q75 12 128 12q17 0 31 -1q60 -5 124 -36q88 -43 132 -95t70 -147q23 -76 23 -99.5t-23 -72.5q-27 -59 -109.5 -117.5t-174.5 -82.5q-6 -2 -19 -4q-29 -8 -41 -11.5t-30.5 -12.5t-23.5 -11t-13 -18.5t-9 -25t-4.5 -36t-3.5 -46v-63.5v-26 q0 -127 -4 -166t-20 -45q-11 -4 -20 -4q-14 0 -22 8q-14 14 -28 487q-10 309 -17 396.5t-26 107.5q-29 33 -29 55q1 9 6 16zM178 1180q-4 -10 -4 -51q0 -57 8 -173l13 -198l75 6q49 2 87 19.5t60.5 34t33.5 16.5q25 0 48 39.5t23 82.5q0 109 -88 193q-40 37 -142 49 q-29 3 -51 3q-54 0 -63 -21z" />
<glyph unicode="Q" horiz-adv-x="1050" d="M34 902q32 153 124 259q39 45 142 101.5t144 56.5q27 0 37 16q8 12 17 15h6q8 0 22 -6q17 -7 33 -16t50 -28.5t67 -33.5q61 -29 147 -111t138 -160l69 -104l-6 -160q-6 -133 -34.5 -216t-96.5 -148l-51 -54l37 -49q23 -33 25.5 -47t-11.5 -31q-18 -24 -33 -24h-4 q-16 4 -61 43q-33 29 -57 35q-15 4 -39 4q-15 0 -35 -2q-33 -3 -69 -3q-71 0 -152 13q-121 20 -171 57q-84 59 -148.5 140t-80.5 145q-23 86 -23 173q0 67 14 135zM121 772q0 -127 51 -217t166 -162q47 -29 81 -38t99 -9q107 0 107 16t-43 66q-33 39 -37 71.5t24 43.5h3 q23 0 102 -72q57 -53 75.5 -62.5t38.5 5.5q88 68 122 200q16 62 16 124q0 67 -19 132q-20 68 -120.5 171.5t-190.5 150.5q-88 43 -92 43q-145 -45 -215 -97.5t-117 -146.5q-31 -66 -41 -109.5t-10 -109.5z" />
<glyph unicode="R" horiz-adv-x="759" d="M21 1074q-1 27 -1 50q0 90 13 101q11 11 59 11q66 0 203 -21q237 -37 287 -76q76 -59 122 -141q35 -62 35 -109q0 -15 -4 -29q-10 -39 -64.5 -105.5t-107.5 -105.5q-55 -39 -55 -53q0 -6 64 -89q62 -83 120 -176q46 -74 46 -111q0 -10 -3 -17q-10 -24 -42 -24h-3 q-35 1 -45 28q-10 29 -91 148.5t-118 160.5q-27 31 -49 35q-9 2 -26 2q-26 0 -72 -4l-109 -10v-353h-43q-29 0 -37 21q-8 23 -16 188q-14 211 -39 396q-20 147 -24 283zM111 1116q-1 -2 -1 -7q0 -15 7 -55q10 -56 23.5 -142.5t13.5 -151.5q0 -88 26 -104q10 -6 35 -5 q37 0 107 13q72 12 111.5 30.5t101.5 69.5q41 33 71.5 64.5t32.5 43.5q1 4 1 8q0 34 -44 90q-50 64 -109 97q-53 29 -149 43q-75 11 -126 11q-16 0 -28 -1q-58 -4 -73 -4z" />
<glyph unicode="S" horiz-adv-x="663" d="M23 389q9 26 35 26q9 -1 19 -3q42 -12 68 -54q18 -33 39 -48t56 -21q27 -5 54 -5q127 0 230 124q21 28 21 48q0 21 -21 99q-20 72 -41.5 109.5t-81.5 99.5q-92 94 -176 162l-84 69v117q0 96 17.5 133t83.5 78q46 29 112 29q28 0 60 -6q106 -18 164 -76q37 -38 37 -65 q0 -14 -11 -25q-12 -12 -30 -12q-27 0 -68 28q-6 4 -10 8q-45 37 -119 43q-23 3 -39 3q-20 0 -28 -4q-18 -7 -42 -40q-35 -51 -35 -94q0 -39 35 -92t62 -53q29 0 128 -106.5t128 -170.5q56 -123 57 -224q0 -96 -53 -155q-70 -74 -122 -95t-163 -21q-141 0 -174 18 q-33 16 -76 85q-34 55 -34 80q0 7 2 11z" />
<glyph unicode="T" horiz-adv-x="653" d="M25 1300q7 12 67 15q18 1 46 2q62 0 171 -6q174 -8 227.5 -15.5t75.5 -27.5q20 -19 20 -34q0 -33 -93 -46q-14 -2 -33 -2l-94 -8l6 -471q2 -182 2 -286q0 -79 -1 -113q-3 -80 -24 -95q-18 -15 -30 -15q-15 0 -23 21q-20 59 -39 486q-18 471 -32.5 485t-100.5 24 q-49 4 -86 18q-37 16 -53 34q-10 11 -10 21q0 7 4 13z" />
<glyph unicode="U" horiz-adv-x="772" d="M20 791q0 109 5.5 188.5t14.5 125.5t22.5 72.5t26.5 34.5q8 4 17 4q6 0 13 -2q25 -4 26 -62q0 -9 1 -19q0 -55 -7 -133q-8 -94 -12 -198q-1 -20 -1 -41q0 -85 14 -179q16 -116 61 -205q35 -67 84 -93q37 -19 90 -20q17 0 35 2q88 12 134 62.5t67.5 161t25.5 323.5 q4 172 11 232.5t20 66.5q10 4 18 4q23 0 37 -28q18 -38 27 -144q3 -39 3 -83q0 -109 -18 -247q-20 -172 -59 -264t-113 -143q-43 -31 -75.5 -38t-112.5 -7h-125l-70 74q-160 166 -160 555z" />
<glyph unicode="V" horiz-adv-x="796" d="M23 1210q4 12 13 18q6 4 12 5q4 0 7 -2q18 -6 96 -100.5t101 -141.5q25 -47 59 -98q37 -51 103.5 -195.5t79.5 -195.5q12 -54 27 -54h1q29 6 29 144v8q0 61 33.5 208.5t79.5 287.5q25 74 39 95t38 21q27 0 32 -11q3 -6 3 -23q0 -13 -2 -33q-4 -57 -24.5 -122t-53 -201 t-61.5 -349q-16 -131 -40 -187.5t-58 -56.5q-27 0 -63 49.5t-48 102.5q-18 88 -117.5 294t-148.5 259q-27 31 -27 48t-24 38q-31 25 -63 97q-25 57 -25 84q0 6 2 11z" />
<glyph unicode="W" horiz-adv-x="1165" d="M23 1237q10 15 32 15q5 0 11 -1q30 -4 51 -26q29 -33 124 -284t124 -368q10 -45 32.5 -95t43 -80.5t27.5 -22.5t17.5 43t31 125t40.5 164q27 106 40 129.5t46 27.5h6q49 0 95 -62q50 -66 159 -286q70 -137 85.5 -137t15.5 149q0 164 27.5 398.5t47.5 257.5q16 16 24.5 16 t24.5 -16t17 -62q0 -5 1 -11q0 -52 -11 -196q-16 -242 -29 -440q-8 -139 -16.5 -191.5t-26.5 -72.5q-31 -33 -43 -33q-29 0 -98.5 109.5t-198.5 357.5q-28 52 -49 52q-5 0 -10 -3q-12 -10 -13 -45q0 -37 -35.5 -156.5t-40.5 -138.5q-17 -80 -77 -112q-24 -13 -46 -14 q-31 0 -55 28q-31 35 -83 161t-83 238q-20 80 -59 179.5t-65.5 162t-26.5 72.5q0 8 -33 82q-26 58 -26 78q0 5 2 8z" />
<glyph unicode="X" horiz-adv-x="739" d="M35 1174q10 12 23.5 12t107.5 -118t151 -208q61 -94 70 -94q6 0 82 117.5t76 126.5q0 27 56 92t79 65q37 0 37 -31q0 -26 -25 -73q-16 -31 -59 -105q-63 -102 -90 -155q-35 -72 -50.5 -81t-14.5 -58.5t16 -57.5q12 -8 91 -123.5t107 -169.5q20 -38 20 -72q0 -29 -18 -38 q-14 -10 -49 8.5t-35 34.5q0 14 -66.5 109.5t-66.5 105.5q0 14 -43 53l-41 39l-28 -41q-20 -27 -50 -75t-96 -142q-61 -91 -92 -107q-9 -5 -17 -4q-22 0 -42 31q-12 20 2 44t34.5 44.5t20.5 30.5q0 16 170 266q29 43 29 60.5t-31 46.5q-35 31 -35 44t-51 85 q-141 203 -170 257q-15 28 -15 49q0 19 13 32z" />
<glyph unicode="Y" horiz-adv-x="741" d="M33 1241q12 10 21 10t190 -186q152 -160 178 -170q16 -6 37 12q35 31 35 51q0 12 8 21.5t34.5 43.5t57.5 89q51 90 84 90q42 0 42 -34q0 -14 -7 -33q-23 -66 -133 -236l-93 -141l9 -299q3 -91 3 -156q0 -152 -16 -172q-14 -18 -22 -19h-1q-8 0 -24 15q-27 27 -38 319.5 t-36.5 334.5t-183.5 208q-109 115 -140 169q-17 29 -17 51q0 19 12 32z" />
<glyph unicode="Z" horiz-adv-x="811" d="M63 340q111 117 177.5 206t157.5 240.5t145 233.5q64 98 64 133q0 12 -7 16q-10 6 -35 5q-195 -18 -291 -18q-29 0 -50 2q-87 7 -87 52q-1 38 55 46q33 5 70 4q26 0 54 -2q20 -2 39 -2q45 0 83 10q63 18 163.5 18t118.5 -18q19 -18 21 -48v-9q0 -26 -10 -56 q-12 -35 -30.5 -73t-44 -77.5t-49 -75.5t-47 -71t-34.5 -57q-43 -86 -126 -207t-148 -197q-71 -83 -71 -101q-1 -2 1 -4q10 -11 281 -11q113 0 174 -3.5t99 -11.5t48 -22q6 -10 6 -24q0 -8 -2 -17q-4 -20 -43 -25q-47 -6 -309 -6q-238 0 -298 5t-85 28q-33 29 -33 57 q0 32 43 80z" />
<glyph unicode="[" horiz-adv-x="389" d="M27 815q-14 195 2 213q35 45 75 2q20 -20 144 -29q80 -6 100.5 -13t20.5 -29.5t-18.5 -29.5t-90.5 -11l-110 -11l6 -360q6 -360 14 -372.5t91 -12.5t95 -29q12 -37 -27.5 -56.5t-115.5 -13.5q-92 8 -117 37q-29 39 -41 230q-25 438 -28 485z" />
<glyph unicode="\" horiz-adv-x="471" d="M21 1049q-5 43 10.5 59t32 6t51.5 -57q158 -211 288 -651q39 -137 45.5 -198t-16.5 -81h-2q-25 -20 -37 -6q-20 27 -129 375v2v2l-2 2v4q-84 270 -213 467q-23 33 -28 76z" />
<glyph unicode="]" horiz-adv-x="405" d="M20 88q6 25 49.5 34t107 14t89.5 16q18 6 20.5 188t-14.5 410l-10 157l-59 11q-152 24 -80 98q41 41 180 -29l59 -29l17 -393q14 -393 0 -432q-14 -37 -101.5 -80t-150.5 -43q-49 0 -80 22.5t-27 55.5z" />
<glyph unicode="a" horiz-adv-x="587" d="M20 358q-1 10 -1 21q-1 93 49 172q54 88 145 102q38 7 72 7q28 0 53 -5q55 -10 86 -26.5t56.5 -31.5t35.5 -15q33 0 43 -56q8 -46 8 -156v-46q-2 -213 -35 -224q-3 -1 -6 -1q-16 0 -43 26q-31 29 -59.5 31t-54 -10.5t-68.5 -15.5h-14q-38 0 -86 13q-72 25 -105 52 q-70 59 -76 163zM137 471q-18 -47 -18 -86q0 -69 55 -115q34 -29 58 -36q13 -4 33 -3q17 0 38 2q154 16 154 170q0 45 -10.5 67.5t-43.5 49.5q-49 43 -113 43q-19 0 -38 -4q-88 -16 -115 -88z" />
<glyph unicode="b" horiz-adv-x="559" d="M20 713q0 435 12 463q9 23 29 23q4 0 9 -1q16 -2 23 -50t16 -206q14 -266 28 -283q8 -10 37 15q35 33 139 33q68 0 95.5 -7.5t54.5 -33.5q43 -39 63 -110q14 -50 14 -108q0 -24 -3 -49q-4 -57 -18.5 -85.5t-59.5 -75.5q-73 -72 -181 -100q-48 -13 -88 -13q-51 0 -90 20 q-37 20 -52 66.5t-21.5 152t-6.5 349.5zM129 238h84q76 0 139.5 40.5t83.5 100.5q10 26 10 56q0 27 -8 57q-16 64 -49 94q-34 26 -51 26h-4q-35 -2 -82 -19.5t-57 -31.5q-14 -18 -36 -111.5t-26 -154.5z" />
<glyph unicode="c" horiz-adv-x="518" d="M20 424q0 88 8.5 113.5t49.5 68.5q59 60 108 74q29 8 65 8q15 0 31 -2q54 -5 72 -22q14 -12 8 -43q-4 -20 -31.5 -28.5t-63.5 -13t-70.5 -15.5t-59 -48t-24.5 -100q0 -80 43 -104.5t182 -24.5q94 0 124 -5.5t34 -21.5q1 -6 1 -11q-1 -35 -45 -59q-50 -26 -127 -25h-5 q-82 1 -152 30q-96 43 -122 81.5t-26 147.5z" />
<glyph unicode="d" horiz-adv-x="608" d="M27 338q-6 24 -6 49q1 61 35 131q48 98 132 146q67 33 113 33q11 1 21 -1q52 -10 95.5 -28.5t55.5 -12.5q8 6 22.5 196t30.5 210t26 19.5t15 -19.5q16 -53 19 -436q2 -152 2 -246.5t-2 -131.5q-4 -75 -23 -81q-6 -2 -11 -2q-23 0 -46 33l-31 41l-39 -39 q-25 -23 -53.5 -30t-95.5 -7q-78 0 -103.5 9t-77.5 56q-70 68 -79 111zM137 446q-11 -26 -11 -49q0 -75 110 -123q46 -20 68 -22h6q20 0 46 10q76 31 104.5 65.5t28.5 94.5q0 45 -9 66.5t-42 48.5q-31 27 -58.5 36t-74.5 9q-66 0 -100.5 -28t-67.5 -108z" />
<glyph unicode="e" horiz-adv-x="552" d="M37 340q-17 35 -17 74q0 42 19 89q37 91 115 128q52 23 102 23q75 0 145 -52q51 -38 51 -71q0 -4 -1 -8q-7 -36 -82 -72q-76 -37 -150 -50q-80 -16 -80 -44q0 -13 25 -23q31 -12 54.5 -28.5t33.5 -25t48 -15.5q18 -3 40 -3q25 0 55 4q27 2 49 2q65 0 80 -18q8 -10 8 -20 q0 -8 -5 -16q-11 -18 -46 -35t-82 -25q-20 -3 -40 -3q-81 0 -167 44q-108 55 -155 145zM154 496q0 -6 4 -10q3 -2 7 -2q3 0 6 1q9 2 18.5 5.5t24.5 9.5t28 8q28 8 28 24t-19 16q-16 0 -44 -11q-53 -20 -53 -41z" />
<glyph unicode="f" horiz-adv-x="532" d="M20 555q0 35 52 43q35 6 39 14q4 7 4 44q0 56 -9 178q-2 20 -4 36q-3 48 -3 90q0 203 79 271q37 33 62 36h8q26 0 86 -18q55 -16 120 -81q59 -59 59 -91q0 -3 -1 -6q-4 -27 -22.5 -32t-47 11.5t-63.5 49.5q-66 63 -107 63q-19 0 -32 -13q-41 -40 -41 -208v-16 q0 -152 12 -219l12 -68h82q82 0 101 -29q18 -29 -3.5 -48t-83.5 -30l-63 -10l6 -178q1 -38 1 -67q0 -58 -3 -81q-4 -36 -20 -53q-15 -12 -27 -12q-27 0 -41 57q-8 37 -10 88q0 70 -5 116t-9.5 69.5t-20.5 35t-20.5 12.5t-26.5 5q-35 4 -47.5 13.5t-12.5 27.5z" />
<glyph unicode="g" horiz-adv-x="448" d="M20 395q0 61 8.5 86t39.5 54q16 14 31.5 25t25.5 19.5t24.5 11.5t21.5 5q3 1 9 1t14 -1q15 -2 20 -3t23.5 -6t24.5 -7q72 -18 117 -56q31 -27 37 -63q8 -37 10 -234q2 -87 2 -143q0 -70 -3 -92q-5 -41 -38 -84q-63 -84 -169 -92q-10 -1 -20 -1q-90 0 -137 68 q-29 42 -29 72q0 19 11 33q12 16 30 16q20 0 46 -22q10 -10 18 -23q29 -33 46.5 -42t43.5 -1q93 23 93 166q0 12 -1 24q-4 57 -10 76t-20 15q-57 -15 -92 -15q-11 0 -20 2q-36 6 -87 54q-49 43 -59.5 65.5t-10.5 91.5zM121 395q0 -39 24.5 -69.5t57.5 -30.5q45 0 75 36 q28 33 28 70v7q-3 41 -44 55q-40 16 -70 16q-20 0 -34 -7q-37 -19 -37 -77z" />
<glyph unicode="h" horiz-adv-x="583" d="M25 899q-6 127 -6 202q0 87 8 101q18 33 32 33q33 0 47.5 -66.5t24.5 -273.5q14 -289 31 -326q10 -27 19 -28.5t42 16.5q46 24 95 24q54 0 112 -30q35 -20 54.5 -47t41.5 -92q33 -94 36 -170v-14q0 -64 -25 -85q-14 -11 -25 -11q-9 0 -16 7q-16 16 -41 106.5t-25 133.5 q0 45 -20 65q-20 19 -85 18h-7q-70 -1 -87 -20q-18 -23 -30 -147q-10 -94 -18.5 -109.5t-47.5 -15.5h-49l-10 203q-10 205 -23 223q-16 27 -28 303z" />
<glyph unicode="i" horiz-adv-x="155" d="M22 946q-1 3 -1 7q0 10 10 20q5 5 12 5q5 0 13 -4q16 -9 16 -26q0 -14 -25 -14q-20 0 -25 12zM41 371q-3 68 -3 113.5t3 68.5q6 45 35 45q39 0 50 -46q9 -39 9 -143v-40q-4 -162 -16 -176q-6 -6 -31 -7q-29 0 -35 19q-8 23 -12 166z" />
<glyph unicode="j" horiz-adv-x="327" d="M23 -88q9 24 29 24q12 0 30 -10q4 -2 6 -4q18 -11 35 -11q15 0 29 9q20 12 25 68.5t9 265.5q5 315 23 338q11 13 21 13q25 0 42 -87q18 -92 29 -280q5 -109 5 -167q0 -29 -1 -45q-4 -49 -26 -100q-37 -80 -99 -106q-24 -9 -48 -9q-37 0 -73 25q-39 27 -39 58q0 9 3 18z M165 800q6 9 14 9q5 0 11 -3q11 -6 11 -14q0 -5 -3 -10q-7 -10 -15 -10q-5 0 -11 3q-10 6 -10 14q0 5 3 11z" />
<glyph unicode="k" horiz-adv-x="524" d="M29 702q-8 208 -8 328q0 136 10 162q8 18 19 30q9 11 17 11h3q25 -10 38 -91t21 -282q8 -207 27 -235q7 -10 21 -10q24 0 71 30q16 10 55 39q85 59 122 59q21 0 26 -20q2 -4 2 -10q0 -16 -51.5 -67.5t-114.5 -100.5l-58 -45l50 -31q72 -45 148.5 -115.5t76.5 -93.5 q0 -29 -25 -49q-7 -5 -16 -5q-11 0 -27 8q-26 15 -96 79q-115 100 -147 106q-23 4 -29 -9t-10 -64q-6 -109 -52 -109q-14 0 -30 16t-24.5 103.5t-18.5 365.5z" />
<glyph unicode="l" horiz-adv-x="161" d="M20 272q4 43 8.5 274.5t10.5 438.5t12 217q9 14 20 14h3q12 -2 39 -26q20 -18 24 -83t4 -331q0 -297 -10 -420t-35 -147q-13 -13 -27 -13q-11 0 -25 10q-24 20 -25 55q0 6 1 11z" />
<glyph unicode="m" horiz-adv-x="720" d="M25 335q-5 70 -5 119q0 73 11 99q16 45 35 45q14 -2 14 -31q0 -37 15.5 -41t51.5 25l46 33l159 -74l45 45q39 37 97 42q8 1 16 1q49 0 88 -27q35 -25 71 -139q30 -95 30 -157q0 -12 -1 -23q-2 -43 -11 -54.5t-36 -11.5q-29 0 -39 18.5t-24 106.5q-12 76 -23.5 116 t-27 56.5t-33 9t-45.5 -35.5q-27 -27 -35 -52.5t-8 -82.5q0 -55 -5 -77t-22 -28q-27 -10 -50.5 19.5t-23.5 74.5q0 47 -25.5 94.5t-56 62.5t-57.5 -3q-8 -8 -33 -178q-27 -174 -60 -174h-1q-12 0 -25 18q-20 29 -32 204z" />
<glyph unicode="n" horiz-adv-x="503" d="M23 526q-3 20 -3 37q0 43 17 62q13 17 22 17h1q8 -1 28 -26q12 -16 23.5 -35.5t15.5 -24.5t12 -4t27 17q41 37 97 49q19 4 36 3q34 0 63 -15q35 -14 48.5 -39.5t31.5 -105.5q37 -160 41 -211q1 -7 1 -14q0 -40 -21 -58q-18 -16 -27.5 -13t-32.5 28q-8 10 -14 22t-11 29.5 t-8 32t-7.5 36t-5.5 33.5t-5 37q-4 37 -6 54.5t-8 43t-14.5 32.5t-21.5 11t-31.5 -9t-43.5 -40q-41 -43 -49 -70.5t-8 -107.5q0 -115 -25 -137q-14 -11 -26 -11q-23 0 -37 41q-25 66 -59 336z" />
<glyph unicode="o" horiz-adv-x="507" d="M20 362q0 59 37 131t84 103q43 29 70 32q5 1 10 1q19 -1 29 -11q12 -12 42 -31.5t68 -27.5q43 -12 81 -66.5t44 -117.5q1 -11 1 -21q0 -62 -41 -126q-48 -74 -117 -95q-31 -10 -68 -10q-23 0 -48 4q-65 10 -103 41q-29 20 -59 87t-30 107zM137 369q0 -57 8.5 -79 t36.5 -44q45 -35 76 -35q39 0 77 45t38 90q0 57 -23 88t-74 45q-63 18 -81 19q-57 0 -58 -129z" />
<glyph unicode="p" horiz-adv-x="512" d="M45 381q-25 21 -25 50t25 65q51 71 160 106q29 10 60 10q39 0 81 -16q76 -29 113 -88q33 -53 33 -129q0 -49 -10.5 -69.5t-47.5 -49.5q-55 -45 -147 -65l-94 -23l-11 -125q-10 -127 -10 -190q0 -53 -22 -71q-10 -9 -22 -9q-14 0 -32 14q-16 12 -20 70.5t-4 224.5 q0 168 -5.5 224.5t-21.5 70.5zM164 479q-6 -8 -6 -29q0 -24 8 -65q14 -76 33 -92q13 -9 36 -9q13 0 29 3q45 8 88 37q33 20 36 59q1 4 1 9q0 34 -24 69q-16 20 -38 28.5t-71 8.5q-82 0 -92 -19z" />
<glyph unicode="q" horiz-adv-x="475" d="M27 285q-6 32 -6 64q0 36 7 72q13 70 44 105q23 25 50.5 31t98.5 6q78 0 105.5 -8t68.5 -43l60 -51v-318q0 -305 -23 -327q-3 -3 -9 -3q-10 0 -28 13q-25 20 -25 119l1 12q0 97 -11 158l-10 63l-80 -10q-19 -2 -38 -2q-60 0 -117 24q-49 23 -65.5 40.5t-22.5 54.5z M119 322q12 -29 28.5 -36t71.5 -7q57 0 73.5 8t35.5 45q25 47 25 64q0 18 -38 40q-49 33 -96 37q-6 1 -12 1q-38 0 -57 -23q-38 -44 -38 -89q0 -20 7 -40z" />
<glyph unicode="r" horiz-adv-x="391" d="M20 434q0 129 39 129q14 2 37 -16q12 -12 27.5 -9t42.5 23q41 31 94 34h11q46 0 77 -22q24 -17 24 -34q0 -8 -6 -16q-16 -25 -67 -25q-33 0 -54.5 -11.5t-45.5 -42.5q-29 -33 -37 -61.5t-8 -95.5q0 -104 -27 -127q-15 -12 -27 -12q-32 0 -55 77q-25 80 -25 209z" />
<glyph unicode="s" horiz-adv-x="458" d="M20 532q0 10 16.5 40t58.5 62t91 32q56 0 114 -34q52 -31 53 -59q0 -3 -1 -6q-4 -23 -24 -23q-1 0 -2 -1q-22 0 -105 14q-16 3 -30 3q-35 0 -52 -19q-14 -16 -12 -23.5t23 -13.5q121 -37 180 -70t80 -74q29 -57 28 -90q2 -39 -34 -76q-38 -38 -90 -60q-46 -20 -99 -20 h-15q-62 3 -104 38q-35 29 -39 39t17 30q16 16 28.5 18.5t34.5 -10.5q36 -19 73 -19q26 0 53 9q57 20 57 64q0 6 -1 12q-2 23 -18 36t-55 25q-104 31 -165 78t-61 98z" />
<glyph unicode="t" horiz-adv-x="421" d="M24 561q10 14 50 35l67 35v166q1 166 13 176q11 11 21 11q27 0 44 -77q14 -53 21 -141l10 -127h76q53 0 64 -6t11 -35q0 -25 -10 -35t-39 -14q-52 -5 -68 -21q-12 -12 -12 -109q0 -36 2 -83q1 -44 1 -76q0 -48 -2 -68q-3 -34 -21 -40q-11 -4 -21 -4q-21 0 -35 22 q-20 32 -22 115q-2 125 -16.5 166t-61.5 55q-46 16 -64 28q-11 8 -11 17q-1 5 3 10z" />
<glyph unicode="u" horiz-adv-x="493" d="M39 330q-19 110 -19 171q0 75 29 75q4 0 8 -1q12 -4 29 -18q27 -27 39 -146.5t29 -140.5q20 -24 58 -24h10q46 4 83 33q29 20 37 47.5t12 115.5q5 132 23 152q15 19 26 19h1q12 -1 38 -27q20 -16 25.5 -56.5t5.5 -169.5q0 -190 -24 -208q-14 -10 -54 10q-23 14 -35 14 t-18 -8t-37 -16.5t-84 -8.5q-92 0 -127 37t-55 150z" />
<glyph unicode="v" horiz-adv-x="534" d="M37 561q6 2 16 2q16 0 85 -65.5t134 -143.5q37 -43 45 -37q4 4 9 21q12 31 31.5 76t30.5 73.5t11 38.5q-1 20 23 38q22 17 49 17h3q28 -1 38 -26q2 -5 2 -12q0 -23 -20 -71q-26 -63 -27 -71q0 -10 -34 -84.5t-34 -89.5q0 -25 -29.5 -54.5t-54.5 -29.5q-18 0 -48.5 36 t-90 118t-96.5 127q-61 78 -61 113q0 18 18 24z" />
<glyph unicode="w" horiz-adv-x="696" d="M25 545q12 18 45 18q35 0 90 -110q45 -86 60.5 -87t23.5 48q4 12 11 31.5t27 48.5q20 30 44 44q13 8 31 8q15 0 34 -6q41 -12 88 -61q66 -66 79 -66t26 68q8 55 30.5 73.5t47.5 -5.5q13 -13 13 -107v-38q-3 -130 -22 -164q-16 -30 -41 -30q-10 0 -24 6q-42 20 -113 106 q-51 63 -77.5 81.5t-43 2t-32.5 -75.5q-14 -55 -50 -103.5t-61 -48.5q-23 0 -57.5 44t-34.5 71q0 18 -31 71q-30 52 -54 104q-14 32 -15 53q0 14 6 24z" />
<glyph unicode="x" horiz-adv-x="526" d="M20 524q0 25 29 33t60 -8q45 -25 83.5 -48.5t49 -32.5t26 -11t22.5 3t32 23q51 37 51 51.5t39 30.5q41 16 65 16q30 0 29 -26q0 -34 -66 -92q-68 -57 -68 -84t68 -92q37 -35 52.5 -66t8.5 -50t-36 -24h-5q-22 0 -56 29q-38 33 -73.5 68t-47.5 35q-16 0 -86 -77 q-65 -71 -103 -71h-6q-42 6 -42 29q0 10 7 22q16 27 66 80q77 79 77 103q0 2 -1 4q-6 12 -90.5 74.5t-84.5 80.5z" />
<glyph unicode="y" horiz-adv-x="526" d="M22 524q-3 14 -3 26q0 24 12 36t22 12t54.5 -48t54.5 -71q16 -39 72.5 -107.5t70.5 -68.5q8 0 30.5 33t43.5 78q53 108 87 108h1q37 0 37 -41q0 -19 -8 -47q-27 -88 -158 -344q-31 -61 -31 -80q0 -29 -39 -72.5t-61 -43.5q-31 0 -40 12t-2 35.5t19.5 52.5t25.5 63.5 t20 68.5q2 14 2 28q0 20 -6 40q-9 35 -38 60q-32 31 -32 49q0 14 -34 51t-34 52q0 18 -33 49q-25 23 -33 69z" />
<glyph unicode="z" horiz-adv-x="561" d="M22 227q10 41 48 62q41 27 113.5 95.5t72.5 81.5t-56 13t-79 27q-15 18 -15 32q0 54 215 54h37q53 -2 64.5 -9.5t15.5 -43.5q2 -33 -14 -59.5t-82 -86.5q-102 -94 -102 -104t122 -10q96 -1 142 -19q37 -15 38 -38q0 -6 -3 -13q-12 -29 -250 -38q-126 -5 -189 -5 q-56 0 -61 4q-19 12 -19 36q-1 10 2 21z" />
<glyph unicode="{" horiz-adv-x="399" d="M20 20v117q0 72 7.5 103.5t29.5 62.5l37 47l-33 37q-49 53 -21 96t112 49q66 6 84 35q12 18 0.5 40t-62.5 71q-57 59 -68.5 83.5t-11.5 100.5q0 72 10.5 96.5t51.5 67.5q100 100 174 104q43 2 47 -40q4 -27 -6.5 -36.5t-47 -29.5t-73.5 -53q-59 -55 -54 -109.5t74 -130.5 q76 -80 86 -123t-17.5 -87t-76.5 -60q-45 -16 -47 -29.5t37 -40.5q35 -25 20.5 -54.5t-75.5 -60.5q-53 -27 -68.5 -50t-15.5 -72q0 -98 131 -195q113 -82 73 -121q-45 -45 -196 92z" />
<glyph unicode="|" horiz-adv-x="147" d="M20 86l7 436q6 436 22.5 456.5t30.5 19.5t31 -21q18 -23 14 -457l-4 -434h-101z" />
<glyph unicode="}" horiz-adv-x="376" d="M26.5 1088.5q-16.5 29.5 6.5 52.5q35 35 133 -37q76 -57 107.5 -102.5t48.5 -124.5q20 -94 3.5 -170t-63.5 -93q-72 -29 0 -75q96 -63 8 -154l-53 -55l53 -60q49 -55 67.5 -100t18.5 -111q0 -176 -149 -249q-86 -41 -115 -23q-72 43 49 102q49 25 66.5 43.5t23.5 55.5 q16 84 -2 142t-79 118q-68 66 -75 105.5t48 66.5q45 25 46 40t-38 54q-43 41 -39 64.5t64 74.5q47 39 57 61.5t10 82.5q0 82 -28.5 133t-100.5 96q-51 33 -67.5 62.5z" />
<glyph unicode="~" horiz-adv-x="897" d="M27 524q-16 16 6 68t57 70q29 18 105 18q57 2 116.5 -30t103.5 -69.5t108.5 -69.5t127.5 -32q66 0 84.5 17.5t30.5 85.5q4 33 14.5 46t30.5 17q41 6 58.5 -33t-1.5 -98q-23 -78 -65.5 -101.5t-159.5 -23.5q-98 0 -131 9.5t-98 54.5q-92 63 -144 112q-53 51 -95 48 t-66.5 -31.5t-46 -50t-35.5 -7.5z" />
<glyph unicode="&#xa2;" horiz-adv-x="411" d="M27 285q-14 86 7 140t89 105l80 60v127q0 182 33 182q12 0 30.5 -73.5t30.5 -168.5q10 -96 49 -143q37 -43 38 -73.5t-32 -39.5q-35 -10 -34 -61t38 -90l35 -39l-35 -39q-37 -37 -37 -125t-26 -98q-31 -12 -48.5 14.5t-25.5 93.5q-6 51 -14 65.5t-37 18.5q-57 8 -95 46 t-46 98zM118 327q1 -48 40 -63q39 -16 50 0t11 90q0 100 -24 101q-14 0 -41 -35q-37 -45 -36 -93z" />
<glyph unicode="&#xa3;" horiz-adv-x="1007" d="M20 231q0 53 8.5 76t39.5 49q47 39 131 41t125 -35l34 -32l35 47q25 31 51.5 103.5t28.5 109.5q0 16 -76 24q-49 6 -68.5 19.5t-2 27t66.5 17.5q72 4 97.5 43t25.5 145.5t42 196.5t110 125q57 31 98 28.5t78 -38.5q37 -37 42 -100.5t-23.5 -102.5t-55.5 -6q-23 27 -19 71 q2 33 -4 44.5t-30 13.5q-39 6 -70 -21q-27 -25 -57.5 -146.5t-24.5 -174.5q4 -31 15.5 -41t44.5 -13q53 -6 73 -28q23 -31 -2.5 -53.5t-77.5 -18.5q-41 2 -54 -10t-36 -78q-14 -39 -27.5 -79t-18.5 -55t-12 -28.5t-18 -23.5q-23 -18 -22.5 -49t22.5 -50q29 -25 117 -46 t156 -21q59 0 80.5 8t48.5 45q41 51 67 41q35 -12 26 -60.5t-56 -95.5q-37 -37 -62.5 -47t-87.5 -10q-80 0 -198.5 35t-157.5 69q-31 29 -48.5 29t-45.5 -26q-10 -8 -41 -26t-77 -32t-88 -13t-72 39t-30 113zM118.5 223.5q10.5 -28.5 45.5 -28.5q68 0 94 43q19 33 -20 47 q-53 20 -101 -13q-29 -20 -18.5 -48.5z" />
<glyph unicode="&#xa7;" horiz-adv-x="622" d="M33 -57q14 14 41.5 8t51.5 -19.5t59.5 -25.5t62.5 -12q39 0 95 35.5t91 84.5q23 29 25 48.5t-10 60.5q-18 61 -64.5 105t-144.5 94q-96 47 -148.5 112.5t-38.5 118.5q12 47 70 106l57 58l-33 37q-39 43 -63.5 99t-24.5 105q0 51 37 116.5t84 96.5q27 18 99.5 27.5 t157.5 -6.5t124 -64q25 -31 37 -92t-4 -82q-20 -27 -36.5 -17.5t-43.5 64.5q-31 55 -71 78t-113 23q-76 0 -120 -45t-40 -111.5t59 -122.5q102 -109 185 -108q59 0 113.5 -61.5t54.5 -129.5q0 -39 -36 -100.5t-59 -61.5q-33 0 -32.5 -23.5t30.5 -59.5q37 -43 51.5 -113 t2.5 -148q-6 -43 -22.5 -70.5t-55.5 -64.5q-61 -55 -106.5 -73.5t-123.5 -18.5q-98 0 -174 68q-61 51 -24 84zM164 522.5q0 -26.5 31 -59.5q29 -29 116.5 -34t120.5 22q31 23 38 58t-11 58q-20 27 -125 37q-70 6 -93.5 2t-45.5 -24q-31 -33 -31 -59.5z" />
<glyph unicode="&#xab;" horiz-adv-x="751" d="M25 535q12 36 159 186q147 147 181 137q12 -6 16 -31q6 -31 -55.5 -103.5t-118.5 -136t-45 -75.5q6 -6 90 -29.5t141.5 -56.5t26.5 -70q-20 -25 -48 -24.5t-56.5 13.5t-82 32.5t-104.5 28.5q-55 8 -87 47t-17 82zM377 565q8 29 82.5 124t107.5 122q29 25 57.5 21.5 t28.5 -27.5q0 -23 -47 -85.5t-86 -115.5t-22 -61q12 -8 100 -21q78 -10 114 -39.5t9 -62.5q-39 -45 -238 20q-131 43 -106 125z" />
<glyph unicode="&#xad;" horiz-adv-x="512" d="M20 549q0 14 29 37q25 20 66 24t174 0l203 -4v-84l-216 -4q-254 -6 -256 31z" />
<glyph unicode="&#xbb;" horiz-adv-x="724" d="M23 862q14 25 70.5 20t90.5 -34q43 -33 64 -33q35 0 103.5 -54t68.5 -81q0 -33 -44 -87t-97 -87q-113 -72 -169.5 -87.5t-68.5 19.5q-8 20 17.5 56t47.5 36q25 0 102 57.5t75 74.5q-4 20 -76 61t-134 80t-50 59zM369 848q0 13 20 33q23 20 47.5 16t106.5 -45 q162 -82 162 -131q0 -23 -111 -141q-68 -70 -98.5 -93.5t-55.5 -19.5q-49 6 -47 29q2 27 76 104q68 76 79 103.5t-24 41.5q-39 16 -97 54.5t-58 48.5z" />
<glyph unicode="&#xbf;" />
<glyph unicode="&#xc0;" />
<glyph unicode="&#xc1;" />
<glyph unicode="&#xc2;" />
<glyph unicode="&#xc4;" />
<glyph unicode="&#xc7;" />
<glyph unicode="&#xc8;" />
<glyph unicode="&#xc9;" />
<glyph unicode="&#xca;" />
<glyph unicode="&#xcb;" />
<glyph unicode="&#xce;" />
<glyph unicode="&#xcf;" />
<glyph unicode="&#xd1;" />
<glyph unicode="&#xd3;" />
<glyph unicode="&#xd4;" />
<glyph unicode="&#xd6;" />
<glyph unicode="&#xd9;" />
<glyph unicode="&#xda;" />
<glyph unicode="&#xdb;" />
<glyph unicode="&#xdc;" />
<glyph unicode="&#xdf;" />
<glyph unicode="&#xe0;" />
<glyph unicode="&#xe1;" />
<glyph unicode="&#xe2;" />
<glyph unicode="&#xe4;" />
<glyph unicode="&#xe7;" />
<glyph unicode="&#xe8;" />
<glyph unicode="&#xe9;" horiz-adv-x="466" d="M20 371q0 100 25 153t86 88q18 8 63.5 11.5t94.5 -4t80.5 -41t21.5 -89.5q-6 -33 -27.5 -59.5t-49 -42.5t-57.5 -30.5t-54.5 -26t-37.5 -24.5t-9 -30.5t30 -42.5q43 -35 74 -35.5t86 31.5q53 33 79 25t21 -53q-4 -31 -21 -45.5t-75 -32.5q-84 -27 -148.5 -11.5 t-125.5 78.5q-39 39 -47.5 66t-8.5 115zM133 414q25 4 82 35q76 43 59 61q-6 4 -20 10q-35 14 -57.5 7t-49.5 -40q-61 -78 -14 -73zM160 819q16 18 47 45q90 80 100 49q6 -20 -35 -79q-47 -68 -86 -68q-72 0 -26 53z" />
<glyph unicode="&#xea;" />
<glyph unicode="&#xeb;" />
<glyph unicode="&#xee;" />
<glyph unicode="&#xef;" />
<glyph unicode="&#xf3;" />
<glyph unicode="&#xf4;" />
<glyph unicode="&#xf6;" />
<glyph unicode="&#xf9;" />
<glyph unicode="&#xfa;" />
<glyph unicode="&#xfb;" />
<glyph unicode="&#xfc;" />
<glyph unicode="&#x2000;" horiz-adv-x="683" />
<glyph unicode="&#x2001;" horiz-adv-x="1366" />
<glyph unicode="&#x2002;" horiz-adv-x="683" />
<glyph unicode="&#x2003;" horiz-adv-x="1366" />
<glyph unicode="&#x2004;" horiz-adv-x="455" />
<glyph unicode="&#x2005;" horiz-adv-x="341" />
<glyph unicode="&#x2006;" horiz-adv-x="227" />
<glyph unicode="&#x2007;" horiz-adv-x="227" />
<glyph unicode="&#x2008;" horiz-adv-x="170" />
<glyph unicode="&#x2009;" horiz-adv-x="273" />
<glyph unicode="&#x200a;" horiz-adv-x="75" />
<glyph unicode="&#x2010;" horiz-adv-x="512" d="M20 549q0 14 29 37q25 20 66 24t174 0l203 -4v-84l-216 -4q-254 -6 -256 31z" />
<glyph unicode="&#x2011;" horiz-adv-x="512" d="M20 549q0 14 29 37q25 20 66 24t174 0l203 -4v-84l-216 -4q-254 -6 -256 31z" />
<glyph unicode="&#x2012;" horiz-adv-x="512" d="M20 549q0 14 29 37q25 20 66 24t174 0l203 -4v-84l-216 -4q-254 -6 -256 31z" />
<glyph unicode="&#x2013;" horiz-adv-x="1064" d="M20 549q0 14 63 37q54 20 143 24t378 0l440 -4v-84l-469 -4q-551 -6 -555 31z" />
<glyph unicode="&#x2014;" horiz-adv-x="2088" d="M20 549q0 14 126 37q108 20 286 24t755 0l881 -4v-84l-937 -4q-1102 -6 -1111 31z" />
<glyph unicode="&#x201c;" horiz-adv-x="579" d="M20.5 860.5q-12.5 55.5 42.5 116.5q74 74 111 6q12 -23 8 -37t-26 -39q-29 -31 -30 -40t19 -33q27 -27 24 -60t-30 -39q-27 -4 -66.5 33t-52 92.5zM360.5 818.5q-1.5 19.5 14.5 68.5q41 131 112 145q47 10 66 -41q6 -14 6 -35q0 -39 -51 -65q-43 -23 -46 -36t32 -50 q51 -53 14 -80q-37 -25 -90 12q-18 12 -31 31q-25 31 -26.5 50.5z" />
<glyph unicode="&#x201e;" horiz-adv-x="544" d="M21 914.5q2 30.5 20 48.5q23 25 56.5 14.5t64.5 -49.5l35 -47l-33 -62q-20 -35 -36.5 -48t-39.5 -13q-29 0 -35 9t-4 44q4 53 -12 63q-18 10 -16 40.5zM357 927q1 24 28 38q33 18 62.5 18t48 -19.5t26.5 -46t-2 -60.5t-37 -62q-53 -57 -92 -39q-33 16 -2 73 q16 33 -8.5 53.5t-23.5 44.5z" />
<glyph unicode="&#x2022;" horiz-adv-x="395" d="M21 533.5q4 62.5 57 121.5q113 119 237 9q39 -35 49.5 -56.5t10.5 -68.5t-10.5 -68.5t-49.5 -56.5q-35 -29 -62.5 -40.5t-70.5 -11.5q-45 0 -67.5 10.5t-48.5 41.5q-49 57 -45 119.5z" />
<glyph unicode="&#x202f;" horiz-adv-x="273" />
<glyph unicode="&#x205f;" horiz-adv-x="341" />
<glyph unicode="&#x20ac;" horiz-adv-x="872" d="M20 737q6 35 86 70q56 22 111 92q41 49 73 78t72.5 41t70.5 14t97 2h31q150 0 187.5 -14t37.5 -72q0 -45 -19 -55t-50 18q-37 33 -147.5 30t-190.5 -40q-145 -68 10 -80q16 -2 39 -2q94 -4 127 -20.5t27 -57.5q-2 -25 -30 -30.5t-142 -12.5l-168 -8v-100l143 -8 q111 -6 147.5 -18.5t36.5 -41.5q0 -61 -182 -47q-102 8 -117.5 -10.5t39.5 -83.5q51 -61 140.5 -85t166 -16.5t144 5.5t82.5 -27q27 -41 -27 -53q-47 -10 -199 -12t-192.5 4t-95.5 39q-57 33 -109.5 91t-52.5 87t-32 56.5t-64 27.5q-39 0 -37 24q2 27 49 49q31 16 40 30.5 t7 43.5q-2 25 -13.5 36t-33.5 15q-66 8 -62 41z" />
<glyph unicode="&#xe000;" horiz-adv-x="583" d="M0 0v584h584v-584h-584z" />
</font>
</defs>
</svg>
